<?xml version="1.0" encoding="utf-8"?>
<!-- Generator: Adobe Illustrator 24.0.0, SVG Export Plug-In . SVG Version: 6.00 Build 0)  -->
<svg version="1.1" id="Layer_1" xmlns="http://www.w3.org/2000/svg" xmlns:xlink="http://www.w3.org/1999/xlink" x="0px" y="0px"
	 viewBox="0 0 864 864" style="enable-background:new 0 0 864 864;" xml:space="preserve">
<g>
	<g>
		<path d="M544.5,339.9c-4.1,56.3,4.3,111.2,18.8,165.4C542.8,451.8,534.2,397,544.5,339.9z"/>
		<path d="M470.8,520.9c-0.2,33.1,6,65.2,14.6,96.9C473.7,607.1,462.7,533.7,470.8,520.9z"/>
		<path d="M354.1,630.9c12.1-15.8,18.7-34.3,25.9-53.2C383.5,588.7,366.9,622.4,354.1,630.9z"/>
		<path d="M414.3,247.2c-4.3,0.2-8.4,1.6-12.3,2.4C405.9,248.9,410.1,247.6,414.3,247.2C414.3,247.2,414.3,247.2,414.3,247.2z"/>
		<path d="M336.1,291.6C336.1,291.6,336.1,291.6,336.1,291.6c2.3-5.4,5-10.6,8.1-15.4C340.9,280.7,338.1,285.8,336.1,291.6z"/>
		<path d="M423.1,246.6c-3,0.1-5.9,0.3-8.8,0.6C417.7,247,420.6,246.8,423.1,246.6z"/>
		<path d="M347.5,327.2C347.5,327.2,347.5,327.2,347.5,327.2C347.5,327.2,347.5,327.2,347.5,327.2c-2.7,8.5-5,17-7,25.7
			c-4.1,17-7.4,34.3-12.3,51.1c-12.2,41.4-32.8,78-64,108.1c-3.4,3.3-6.7,6.8-10.4,10.6c0.9-0.3,1.2-0.3,1.5-0.5
			c1-0.6,1.9-1.1,2.8-1.8c16.3-11.6,30-25.8,41.5-42.2c19.4-27.7,31.3-58.6,38.9-91.3c4.1-17.8,7.5-35.9,12.3-53.5
			c0.2-0.6,0.3-1.2,0.5-1.9c1.4-4.9,4.3-13.1,7-20.8c3.6-10,7-22.9,7-22.9S352.2,310.4,347.5,327.2z"/>
		<path d="M319.6,472.3c1.1-4.3,2.4-9.9,2.4-9.9s-2.3,4.9-4,9.1c-14.1,34.2-31.7,66.3-56.3,94.1c28.5-23.8,47.1-53.7,56.8-89
			c0-0.1,0.1-0.2,0.1-0.3c0.1-0.5,0.3-1.1,0.5-1.9C319.3,473.8,319.5,473.1,319.6,472.3C319.6,472.3,319.6,472.3,319.6,472.3z"/>
		<path d="M365.3,358.3c-0.4,1.3-0.9,2.7-1.3,4c-7.4,24.4-11.9,49.4-16.8,74.4c-4.9,25.1-10.1,50.1-18,74.5
			c-9.5,29.1-24.8,54.4-48.2,74.5c-0.7,0.6-1.4,1.2-2,1.9l0,0c0,0-0.1,0.1-0.1,0.1c-0.6,0.5-1.2,1.1-1.8,1.7c0,0,0,0,0,0
			c-2,1.9-2.7,2.6-2.7,2.6s3.7-2.1,6.1-3.7c0.1,0,0.1-0.1,0.2-0.1c0.1,0,0.2-0.1,0.2-0.1c20.7-13.8,35.4-32.7,45.6-55.1
			c12.3-27,18.2-55.7,23.5-84.7c4.3-23.6,8.4-47.3,12.6-70.9c1-5.8,2.2-11.6,3.3-17.4l0,0l1.3-6.7
			C367,353.3,366.3,355.3,365.3,358.3z"/>
		<path d="M469.5,630c-0.2-0.6-0.4-1.2-0.5-1.6c-0.2-0.5-0.3-0.9-0.4-1.3c-0.1-0.2-0.2-0.7-0.3-1.1c0,0,0,0,0,0
			c-7.5-25.4-9.5-51.3-9.3-77.6c0.3-27.6,3.4-54.9,7.3-82.6c-0.9,0.5-1.1,0.6-1.2,0.7c-0.4,1-0.7,2.1-1,3.2
			c-4.5,17.4-7.3,35.2-8.9,53.1c-2.3,24.8-2.5,49.6,1.6,74.3c1.7,10.5,4.4,20.8,9.4,30.2c0.2,0.3,0.4,0.6,0.6,0.9l0,0
			c2.8,4.2,3.6,5.1,3.6,5.1S470.5,633.6,469.5,630z"/>
		<path d="M618.4,567.8c-3.4-0.8-7.1,0.1-10.7,0c-3.5-0.2-7.6,0.4-10.3-1.3c-7.4-4.6-12.4-11.5-16.2-19.2c-0.9-1.8-1.4-3.1-0.4-3
			c0.5,0.1,1.1,0.1,1.6,0.2c7.9,0.9,15.7,0.5,22.9-3.2c11.1-5.9,18.6-15.2,23.5-26.6c1-2.3,1.3-5.3,0.9-7.8
			c-1.3-7.7-6.8-11.9-13.5-14.5c-5.7-2.2-11.7-3.7-17.5-5.6c-4.3-1.4-7.9-3.7-10-7.8c-6.6-12.6-11.8-25.7-16-39
			c-0.2-0.7-0.5-1.5-0.7-2.4c-0.6-2-1.2-4-1.8-6.1c-0.2-0.8-0.4-1.7-0.7-2.6c-0.1-0.5-0.3-1.1-0.4-1.7c0,0,0,0,0,0
			c-0.9-3.8-1.7-7.8-2.4-11.8c0,0,0,0,0,0c-0.2-1.1-0.4-2.3-0.6-3.5c0,0,0,0,0,0c-1-6-1.9-11.9-2.5-16.6c-0.1-0.5-0.1-1-0.2-1.5
			c0-0.2-0.1-0.5-0.1-0.7c-0.7-6-1.4-12.5-1.8-19.3c0,0,0-0.1,0-0.1c-0.1-1-0.2-1.9-0.2-2.9c-1.4-16.8-3.4-33.5-8.2-49.8
			c-6.3-21-16.4-39.9-32.9-54.8c-3.7-3.3-7.5-6.3-11.6-8.9c-0.6-0.5-2-1.3-4.2-2.5c-1.1-0.6-2.2-1.2-3.3-1.7c0,0-0.1,0-0.1-0.1
			c0,0,0,0-0.1,0c0,0,0,0,0,0c-1.2-0.6-2.6-1.2-4.2-1.9c-2.7-1.1-5.6-1.8-8.4-2.8c-15.8-5.6-38.4-8.6-60.7-8.6c0,0,0,0,0,0s0,0,0,0
			c-1.7,0.1-58,2.1-83.1,36.4c-3.1,4.9-5.8,10.1-8.2,15.5c-0.6,1.3-1.1,2.6-1.6,3.9c-6.5,16.3-9.1,33.6-12.2,50.7
			c-3.9,21.9-8.9,43.6-17.2,64.3c-13.9,34.6-36.3,61.1-71.4,75.7c-3.7,1.5-7.2,3.8-10.3,6.3c-6.4,5.2-9,12.2-7.4,20.3
			c0.7,3.7,1.8,7.5,3.5,10.8c6.4,11.8,13.9,22.7,28.1,26.3c-3.1,3.5-6.4,7-9.5,10.7c-3.6,4.2-5.7,9-5.4,14.7
			c0.4,9,4.6,16.3,10.3,22.7c13.8,15.3,32,21,51.8,22.5c8.2,0.6,16-0.9,23.8-3.3c5-1.5,6.8-0.6,9.3,4c2.1,3.8,3.8,7.9,5.8,11.7
			c9,17.2,21,21.6,39.4,19.6c1-0.1,2.1-0.2,3.5-0.3c8.8-2.1,22.5-8.7,26.7-14.8c4.2-6.1,7-11.6,12.1-13.1c2.3-0.7,4.9,0.9,7.7,3.3
			c0.4,0.3,0.8,0.5,1.2,0.9c3.1,2.9,5.7,6.2,8.6,9.4c5.1,5.2,10.3,10.5,24.8,11.8c14.5,1.3,23.6-2.7,26.4-4.3
			c8.7-4.2,12.1-12.6,17.3-19.9c0.4-0.5,1.2-0.5,1.5,0c1.1,1.6,1.8,3,3,4c2.7,2.3,5.5,5.7,8.7,6.3c14.9,2.7,29.1,1.2,40-11.1
			c3.8-4.3,7.4-8.7,11.2-12.9c6.9-7.4,9.5-7.3,16,0.1c8.4,9.6,19.5,11.2,29.9,3.8C622,608.5,628,598.4,630,586
			C631.6,576.5,627.3,569.8,618.4,567.8z M622.2,583.7c-1.6,10.3-6,19.2-13.5,26.4c-7.4,7-16.4,6.2-22.7-1.7c-0.3-0.4-0.7-0.9-1-1.3
			c-6.4-8.4-14.7-9.3-22.4-2c-3.3,3.1-6.1,6.8-9.1,10.3c-2.2,2.5-4.4,5.1-6.7,7.5c-8.3,8.4-18.7,10.2-29.7,8.4
			c-2.4-0.4-4.6-2.8-6.5-4.8c-1.7-1.8-2.6-4.4-4.2-6.4c-2.9-3.6-6.8-3.7-9.6-0.1c-2.1,2.7-3.9,5.7-5.5,8.8
			c-5.5,11-14.5,16-26.6,15.7c-3.5-0.1-7,0-10.4-0.4c-7.5-0.8-13.2-4.7-17.8-10.8c-2.6-3.5-5.8-6.9-9.3-9.6
			c-6.9-5.1-14.9-4.2-20.9,2c-1.7,1.8-3.3,3.6-4.7,5.7c-7,10.3-17,15.2-29.1,16.2c-4.8,0.4-9.6,0.5-14.3-0.2c-7-1-12.3-5.2-16-11.2
			c-2.7-4.5-5.1-9.2-7.3-13.9c-4.8-10.1-9.6-12.3-20.4-9.4c-22.6,6-43.2,1.5-61.7-12.3c-6.9-5.1-11.7-12-13.8-20.5
			c-1.3-5.2-0.7-10,3-14.2c4.3-4.9,8.7-9.6,13-14.5c1-1.2,1.5-2.8,2.2-4.2c-1.5-0.6-3-1.7-4.5-1.8c-8.9-0.3-14.9-5.3-20-11.9
			c-4.8-6.1-9.2-12.4-10.6-20.3c-1.1-6.2,0.6-11.4,5.6-15.2c2.5-1.9,5.1-3.8,8-4.8c38.4-14.1,61.8-42.8,76.9-79.4
			c8.1-19.6,12.9-40.1,16.7-60.9c3.1-17.1,5.4-34.5,11.4-50.9c1.6-4.5,3.5-8.7,5.7-12.8c8.8-15.3,28.6-33.9,55.8-39.5
			c4-0.8,8.1-2.2,12.3-2.4c0,0,0,0,0,0c2.9-0.3,5.8-0.4,8.8-0.6c21.7-0.9,45.1,1.9,63.3,8.3c0.6,0.3,1.2,0.6,1.9,0.9
			c2.2,0.9,4.1,1.8,6.5,2.9c1.1,0.5,2.2,0.9,3.1,1.4c0,0,0,0,0,0c0.2,0.1,0.4,0.2,0.5,0.3c0.2,0.1,0.4,0.2,0.6,0.3c0,0,0,0,0,0
			c7.1,3.5,13.7,8.4,19.7,14.4c15.8,15.6,25.1,35.1,29.7,56.4c3.3,15.3,5.5,31,6.8,46.7c3,35.1,10.4,69,25.5,101
			c4,8.4,10,13.7,19.1,15.8c4.1,0.9,8.2,2.2,12.1,3.8c2.7,1.1,5.3,2.9,7.5,4.9c2.5,2.3,3.3,5.4,1.8,8.6c-4.5,9.7-10.7,18.2-20,23.7
			c-6.9,4.1-14.6,3.7-22.2,2.3c-0.5-0.1-1.1-0.3-1.6-0.3c-4.6-0.6-6.4,1.1-5,5.4c4.2,12.4,11.5,22.7,22.5,30.1
			c4.4,2.9,9.2,1.9,14,1.2c1.7-0.2,3.3-0.5,5-0.5C619.5,574.4,623,578.3,622.2,583.7z"/>
		<path d="M566.7,580.2c-0.2-0.2-0.4-0.4-0.6-0.6c0,0,0,0,0,0c0,0,0,0,0,0c-11.6-13.4-18.1-29-21.5-46c-0.1-0.4-0.2-0.9-0.3-1.4
			c-0.1-0.5-0.2-0.9-0.3-1.4c-1-6.1-1.4-17.9-2-23.3c0,0-0.8,13.9-0.7,18.9c0,0,0,0,0,0.1c-0.2,11.1,2.2,21.6,6.6,31.8
			c3.9,8.9,8.9,17,16.7,23.1c0.4,0.3,0.8,0.5,1.2,0.8l0,0c3.2,1.9,6.6,3.3,6.6,3.3S568.9,582.7,566.7,580.2z"/>
		<path d="M593.6,517.3c4.7,0.8,8.6,1,8.6,1c-5.4-1-9.3-3-12.8-4.8c-16.2-10.4-22.9-26.8-26.1-45.4c-1.2,14.1,2.1,26.9,10.9,38
			c3.6,4.5,8,8.1,13.6,10c0.1,0,0.2,0.1,0.3,0.1l0,0c0,0,0,0,0,0C589.7,516.7,591.7,516.9,593.6,517.3
			C593.5,517.3,593.5,517.3,593.6,517.3z"/>
		<path d="M547.2,593.9c-1.4-3.3-2.8-6.6-4.2-9.9c-10.5-25.9-18.3-52.5-22.4-80.2c-4.5-30.4-6.4-61-5.6-91.7
			c0.1-1.9,0.4-7.5,0.4-11.4c0,0-0.8,3.8-1.5,7.9c0,0,0,0,0,0c-0.4,2.9-0.9,5.7-1.2,8.6c-0.4,3.8-0.7,7.6-0.9,11.4
			c-1.7,36.5,1.9,72.6,10.1,108.2c4.2,18.5,10.5,36.3,20.2,52.7l0,0c4.8,8.1,9.2,13.9,9.2,13.9S549.1,598.2,547.2,593.9z"/>
		<path d="M408.2,304.7c-11.8,0-21.4,11.5-21.4,25.7s9.6,25.7,21.4,25.7c11.8,0,21.4-11.5,21.4-25.7S420,304.7,408.2,304.7z
			 M420.2,341.8c-2.5,0-4.6-5.1-4.6-11.4c0-6.3,2-11.4,4.6-11.4s4.6,5.1,4.6,11.4C424.8,336.7,422.7,341.8,420.2,341.8z"/>
		<path d="M485.5,304.7c-11.8,0-21.4,11.5-21.4,25.7s9.6,25.7,21.4,25.7s21.4-11.5,21.4-25.7S497.3,304.7,485.5,304.7z M497.5,341.8
			c-2.5,0-4.6-5.1-4.6-11.4c0-6.3,2-11.4,4.6-11.4s4.6,5.1,4.6,11.4C502,336.7,500,341.8,497.5,341.8z"/>
		<path d="M428.7,362.9c-0.9-0.4-1.9,0.3-1.8,1.2c1,10.3,7.1,23.3,19.6,23.8c12.5,0.5,20-13.3,21-24.2c0.1-1-1-1.7-1.9-1.2
			c-5.3,3.3-11.5,6.2-18.5,6.2C441.2,368.8,432.5,364.8,428.7,362.9z"/>
	</g>
	<g>
		<path d="M262.9,697l0.1,2.2l-0.6,1.2c-1,2-1.2,4.5-0.8,7.8c0.5,3.2,0.1,4.8-1.2,5.5c-1.3,0.6-2.4,0.5-3.1-0.5
			c-0.4-0.6-0.4-2.6,0.2-5c0.4-1.7,0.7-5,0.6-5c-0.1,0-0.4,0.2-0.7,0.3c-0.7,0.5-1.3,0.5-2,0.2c-0.3-0.2-0.6-0.2-0.7-0.2
			c-0.1,0.1-0.1,1-0.1,2.1c0,1.6-0.1,2.1-0.2,2.4c-0.4,0.7-0.9,1.1-1.6,1.1c-0.5,0-0.6-0.1-1-0.5c-0.2-0.3-0.4-0.5-0.4-0.6
			c0-0.1-0.1-0.4-0.1-0.7c-0.1-0.4-0.1-1.1,0.1-2c0.2-0.7,0.2-1.3,0.2-1.4c-0.1-0.1-0.4,0.1-0.8,0.2c-0.4,0.1-1.1,0.2-1.5,0.2
			c-0.8,0-1.3,0.2-2.3,1.2c-0.2,0.2-1,0.7-1.7,1c-0.7,0.4-1.5,0.9-1.9,1.3c-0.8,0.7-1.9,1.4-3.1,2.1c-0.6,0.3-1,0.6-1.3,1.2
			c-0.3,0.4-0.5,0.8-0.5,0.9c0,0.2,2.6,1.4,5.9,2.5c3.8,1.4,5.9,2.4,7.5,3.6c2.1,1.6,3.2,2.9,4.4,5.4c1,2.1,1.1,2.5,0.9,4.9l-0.1,2
			l-0.7,1.3c-0.4,0.7-1,1.6-1.2,1.9c-0.7,0.9-0.9,1.8-0.8,4.1c0.1,1.1,0.2,2.4,0.3,3c0.2,1.6,0.2,3.2-0.1,3.7
			c-0.3,0.6-1.3,1.4-1.9,1.5c-0.7,0.2-1.3-0.1-1.7-0.6c-0.7-0.8-0.7-1.3-0.3-3.9c0.4-2.3,0.7-4.8,0.5-4.8c0,0-0.2,0.2-0.4,0.5
			c-0.5,0.7-1.3,1.2-2.6,1.6c-0.6,0.2-1.3,0.4-1.6,0.5c-0.3,0.2-0.8,0.2-1.3,0.2c-0.7,0-0.8,0.1-1.1,0.4c-0.6,0.6-0.7,1.1-0.6,3.3
			c0.1,2.1,0,2.2-0.3,2.9c-0.6,1.2-1.6,1.6-2.4,1.1c-0.6-0.5-0.7-1.1-0.7-3.2c0-2.3-0.1-2.5-1.1-2.6c-1.2-0.2-1.8-0.5-2.3-1.2
			c-0.7-1-0.8-1.6-0.5-2.4c0.4-0.7,0.6-1,1.5-1.2c2.3-0.5,6.3-2.3,8.2-3.7c3-2.2,4-3.3,4.7-4.7c0.3-0.6,0.3-0.8,0.2-1.3
			c-0.1-0.4-0.3-0.6-0.6-0.7c-0.2-0.2-0.8-0.6-1.3-1.1c-0.8-0.8-1.5-1.3-1.9-1.3c-0.1,0-0.5,0.3-0.8,0.7c-1,0.8-1.5,1.1-2.1,0.8
			c-0.7-0.2-1.5-1-2-1.8s-0.8-1.2-1.4-1.6c-0.5-0.3-0.7-0.4-1.7-0.4c-1.4,0-1.3-0.2-1,2c0.6,3.3,0.1,5.1-1.3,5.1
			c-1.4,0-2.2-2.6-1.9-5.8c0.3-2.5,0.4-2.6,0.3-3c-0.1-0.2-0.4-0.6-0.7-0.8c-0.4-0.3-1.1-0.8-1.6-1.3c-0.5-0.5-1.2-1-1.4-1.2
			c-0.2-0.2-0.5-0.5-0.6-0.8c-0.1-0.3-0.3-0.7-0.5-0.9c-0.3-0.4-0.7-3-0.7-4c0-5.4,5-12.2,13.1-17.8c5.4-3.7,7.9-4.8,11.4-4.9
			c2.1-0.1,3.3,0.1,4.8,0.9c1.9,1,3.5,2.8,4.1,4.9C262.9,694.7,262.9,695,262.9,697z"/>
		<path d="M301.4,692.3c0,0.5-0.2,1-0.6,2c-0.7,1.5-0.7,1.8-0.4,3c0.2,1,0.2,1.9,0,2.5c-0.6,1.4-2.5,1.5-3.3,0.1
			c-0.6-0.8-0.6-1.3-0.1-2.9c0.4-1.2,0.6-2.4,0.4-2.6c0,0-0.3,0.1-0.6,0.2c-0.4,0.1-0.7,0.2-1.2,0.1c-0.3-0.1-0.8-0.1-1.1-0.1
			l-0.5-0.1l-0.1,1.2c-0.1,0.7-0.1,1.3-0.2,1.4c-0.1,0.1-0.3,0.3-0.6,0.4c-0.4,0.2-0.5,0.2-1,0c-0.6-0.2-0.8-0.6-1-1.7l-0.2-1
			l-0.7-0.3c-0.4-0.2-0.7-0.3-0.7-0.2c-0.1,0-0.2,0.5-0.3,1c-0.8,3.7-1.2,5.9-1.4,7.7c-0.1,1.1-0.4,2.9-0.5,3.9
			c-1.8,10.1-2.1,12.8-1.9,15.7c0,1,0.1,2.4,0.1,3.1c0,2-0.3,6.4-0.6,7.9c-0.2,1.1-0.2,2.1-0.2,3.9c0.1,1.8,0,2.8-0.2,3.6
			c-0.3,1.3-0.3,2.3,0,3.7c0.3,1.6,0.3,4.7-0.1,5.5c-0.4,1-1.3,1.4-2.1,1.1c-0.2-0.1-0.5-0.4-0.7-0.6c-0.5-0.5-0.5-0.5-0.7-2.5
			c-0.1-1.1-0.2-2.8-0.2-3.5c-0.1-2.1-0.1-2-0.4-1.6c-0.8,0.8-1.6,0.8-2.3,0c-0.5-0.6-0.7-1.2-0.8-3.2c-0.1-0.8-0.3-2.1-0.5-2.8
			c-0.5-2-0.6-2.9-0.7-8.7c-0.1-3.1-0.3-6.5-0.4-7.6c-0.3-2.3-0.4-8.3-0.4-19.3v-7.3l-0.5,0.1c-0.6,0-1.1,0.5-1.5,1.6
			c-0.6,1.6-1.4,2.1-2.2,1.3c-0.3-0.4-0.3-0.5-0.3-1.7l0.1-1.3h-0.4c-0.5,0-1,0.3-1.4,0.7c-0.2,0.2-0.3,0.7-0.5,2.2
			c-0.2,2.4-0.5,3.2-1.5,3.7c-0.3,0.2-0.4,0.2-0.7,0.1c-0.8-0.4-0.9-0.6-0.9-5.1c0-3.9,0-4.1,0.3-4.5c0.4-0.7,0.9-1,2.9-1.5
			c3.4-1,6.1-1.3,11.6-1.5c2.8-0.2,4.5-0.2,7.1,0c4,0.2,7.3,0.5,8.6,0.8c0.5,0.1,1.4,0.3,1.9,0.3
			C299.9,689.3,301.4,690.7,301.4,692.3z"/>
		<path d="M330,735.6c0.9,0.8,1.1,2.2,0.5,3.6c-0.1,0.2-0.2,0.8-0.3,1.3c-0.3,1.9-1.6,2.3-2,0.7c-0.2-0.7-0.4-0.8-1.2-1.1
			c-0.4-0.1-0.8-0.3-1-0.4c-0.2-0.3-0.2-0.2-0.2,0.7c0,0.5-0.1,1.2-0.2,1.4c-0.1,0.3-0.2,1.3-0.3,2.2c-0.3,2-0.4,2.6-0.8,2.9
			c-0.4,0.4-0.6,0.3-1-0.1c-0.4-0.5-0.6-1.2-0.8-3c-0.1-1.3-0.1-2.2,0-3.9c0.3-2.9,0.1-4.1-0.6-5.4c-0.3-0.5-0.6-1.1-0.6-1.4
			c-0.1-0.3-0.2-0.9-0.3-1.4c-0.6-3-0.8-3.6-1.4-4.5c-0.4-0.7-0.6-1.3-0.7-2c-0.2-1.3-0.3-1.5-0.9-1.5c-0.3,0-1-0.1-1.5-0.1
			c-1.4-0.2-1.4-0.2-1.5,2.4c-0.1,1.2-0.2,2.2-0.3,2.4c-0.3,0.5-1,1-1.3,1c-0.6,0-0.9-0.3-1.2-0.9c-0.3-0.5-0.3-0.8-0.2-2.2
			c0.1-2.1,0.1-2.2-0.6-1.7c-0.6,0.4-0.8,0.4-1.9,0.1c-0.4-0.1-0.5,0-1.5,1.2c-0.4,0.5-1,0.4-1.9-0.2c-1.1-0.8-1.3-0.8-1.6-0.3
			c-0.4,0.7-1,2.5-1.1,3.8c-0.1,0.7-0.5,2.1-0.8,3.1c-0.3,1.1-0.7,2.3-0.7,2.7c0,0.4-0.4,1.6-0.6,2.6c-0.7,2.1-1,3.7-1,6.3
			c0,1.4-0.1,1.8-0.3,2.1c-0.5,0.7-1.5,0.8-2.2,0.1c-0.4-0.5-0.6-1.1-0.6-2.1c0-0.7-0.1-0.8-0.6-1.5l-0.6-0.7l-0.4,0.3
			c-0.5,0.4-0.8,0.3-1.2-0.3c-0.3-0.6-0.3-1.4,0.2-2.9c0.2-0.7,0.5-1.9,0.6-2.7c0.2-2,1.1-6.5,2.1-11.2c0.3-0.9,0.6-2.6,0.8-3.8
			c0.6-2.9,1.8-7.7,2.4-9.9c2.4-8,7.4-19.1,9.5-21.3c1.4-1.4,3.3-2.1,5.8-2c1.2,0.1,1.7,0.2,2.2,0.4c0.6,0.3,1.5,1.2,2.1,2.2
			c0.4,0.6,1,3.3,1.4,5.6c0.1,1.1,0.4,2.6,0.6,3.4c0.2,0.8,0.4,2.3,0.5,3.1c0.3,2.8,0.5,4.6,1.1,6.5c0.5,1.6,0.5,2.1,0.7,4.4
			c0.3,3.1,0.6,5.1,1.3,7.2c0.4,1.2,0.6,2.1,0.7,3.5c0.2,2.3,0.5,3.7,1.4,6.6C329,733.9,329.5,735,330,735.6z M316.8,716
			c-0.1-0.3-0.3-1-0.4-1.5c-0.1-0.5-0.2-1.3-0.3-1.5c-0.2-0.4-0.2-1.1-0.2-1.5c0-0.5-0.1-1.2-0.2-1.5c-0.1-0.3-0.2-1-0.3-1.6
			c-0.1-0.6-0.2-1.4-0.3-1.8l-0.2-0.8l-0.2,0.5c-0.1,0.3-0.3,1.1-0.3,1.6c-0.1,0.7-0.2,1.4-0.3,1.5c-0.1,0.2-0.2,0.9-0.3,1.6
			c-0.1,1-0.2,1.3-0.4,1.6c-0.2,0.2-0.4,0.4-0.5,0.4c-0.6,0.2-1.2-0.6-1.2-1.4c0-0.7-0.3-0.6-0.8,0.5c-0.3,0.6-0.8,1.6-1.2,2.2
			c-0.4,0.6-0.8,1.5-1,2l-0.4,0.8l0.5-0.1c0.2-0.1,1.1-0.2,2-0.3c2.6-0.3,3.4-0.4,4.8-0.2c0.7,0.1,1.4,0.1,1.4,0.1
			C317,716.6,316.9,716.3,316.8,716z"/>
		<path d="M363,690.3c0.6,1,0.8,2,0.7,3.4c-0.2,1.9-0.6,3.3-1.6,5.1c-1.4,2.6-1.8,4.6-1.4,8c0.2,2.4,0.1,3.5-0.4,4.5
			c-0.3,0.6-0.5,0.7-1,1c-0.7,0.3-1.4,0.2-1.9-0.5c-0.4-0.4-0.4-0.5-0.4-1.7c0-0.7,0.1-1.6,0.1-1.9l0.1-0.6l-0.5,0.7
			c-0.3,0.4-0.7,1-1,1.2c-0.2,0.4-0.4,0.8-0.6,1.7c-0.2,1.2-0.8,2.7-1.5,4.1c-1,1.9-1.2,3.6-0.7,5.7c0.6,2.3,0.4,3.7-0.6,4.2
			c-0.9,0.5-1.9,0.1-2.3-0.8c-0.2-0.5-0.3-0.8-0.2-1.5c0.1-0.8,0.1-0.9-0.1-0.6c-0.4,0.5-0.9,1.6-1.3,3c-0.5,1.7-1,2.8-1.6,3.5
			c-0.6,0.7-0.8,1.2-1.1,2.6c-0.3,1.7-0.7,2.6-1.4,3.4c-0.6,0.6-0.7,0.9-0.9,1.6c-0.2,0.5-0.4,1.3-0.7,1.6c-1.2,2.1-1.1,2-1.1,3.8
			c0,1.2,0.1,2.1,0.3,2.8c0.4,2,0.1,3.8-1,4.8c-0.5,0.5-0.6,0.6-1.2,0.6c-0.4,0-0.6-0.1-1-0.4c-0.6-0.5-0.8-1.1-0.6-2.1
			c0.1-0.5,0.2-1.6,0.2-2.7l0.1-1.8l-0.4-0.1c-0.2-0.1-0.5-0.2-0.7-0.3c-0.2-0.1-0.4-0.2-0.5-0.2c-0.1,0-0.1,0.6-0.1,1.3l0.1,1.3
			l-0.5,0.4c-0.5,0.5-1.2,0.5-1.7,0.1c-0.4-0.3-0.6-0.7-0.7-2c-0.1-0.5-0.2-1.4-0.4-2c-0.2-1-0.3-1.2-0.1-2c0.1-0.5,0.2-1,0.3-1.2
			c0.1-0.2,0.3-1.1,0.6-2c0.7-2.6,2.7-8.1,5.1-14.4l0.7-1.7l-0.6-0.5c-0.3-0.3-1-0.9-1.4-1.4s-0.9-0.9-1-0.9c-0.2,0-0.2,0.7,0.1,1.6
			c0.3,1,0.3,2.2,0,2.6c-0.4,0.7-1.4,0.8-2,0.2c-0.8-0.7-1-2.3-0.6-4.3c0.3-1.5,0.1-2.8-0.7-3.3c-0.5-0.4-0.7-0.8-0.8-1.6
			c-0.1-0.5-0.3-1.1-0.6-1.7c-0.3-0.5-0.5-1.1-0.5-1.2c0-0.3-0.7-1.3-0.7-1.1c0,0.2,0.1,0.6,0.2,1.1c0.2,1,0.1,1.8-0.4,2.6
			c-0.6,0.9-1.9,0.9-2.5,0c-0.7-0.9-0.7-2.1-0.2-4.3c0.2-0.5,0.3-1.7,0.3-3.3c0.1-2.2,0.1-2.6-0.2-3.4c-0.3-1.1-0.7-4.5-0.7-5.7
			c0-2.1,0.8-5.5,1.5-6.5c0.9-1.3,2-1.9,3.3-1.9c1.4,0,2.6,0.8,3.2,2.2c0.2,0.4,0.2,1.3,0.3,3.2c0.2,3.6,0.4,5.1,1.8,9.5
			c0.9,3,1.5,4.6,2.6,6.6c1.1,2,2.3,4,2.4,3.9c0,0,0.9-2.2,2-4.9c2.3-5.7,4-9.8,4.9-11.6c1.3-2.6,1.7-3.6,2-4.5c0.4-1.3,1-2.3,1.8-3
			c0.9-0.7,1.6-1.1,2.9-1.4C359,686.8,361.8,688,363,690.3z"/>
		<path d="M417.8,697l0.1,2.2l-0.6,1.2c-1,2-1.2,4.5-0.8,7.8c0.5,3.2,0.1,4.8-1.2,5.5c-1.3,0.6-2.4,0.5-3.1-0.5
			c-0.4-0.6-0.4-2.6,0.2-5c0.4-1.7,0.7-5,0.6-5c-0.1,0-0.4,0.2-0.7,0.3c-0.7,0.5-1.3,0.5-2,0.2c-0.3-0.2-0.6-0.2-0.7-0.2
			c-0.1,0.1-0.1,1-0.1,2.1c0,1.6-0.1,2.1-0.2,2.4c-0.4,0.7-0.9,1.1-1.6,1.1c-0.5,0-0.6-0.1-1-0.5c-0.2-0.3-0.4-0.5-0.4-0.6
			c0-0.1-0.1-0.4-0.1-0.7c-0.1-0.4-0.1-1.1,0.1-2c0.2-0.7,0.2-1.3,0.2-1.4c-0.1-0.1-0.4,0.1-0.8,0.2c-0.4,0.1-1.1,0.2-1.5,0.2
			c-0.8,0-1.3,0.2-2.3,1.2c-0.2,0.2-1,0.7-1.7,1c-0.7,0.4-1.5,0.9-1.9,1.3c-0.8,0.7-1.9,1.4-3.1,2.1c-0.6,0.3-1,0.6-1.3,1.2
			c-0.3,0.4-0.5,0.8-0.5,0.9c0,0.2,2.6,1.4,5.9,2.5c3.8,1.4,5.9,2.4,7.5,3.6c2.1,1.6,3.2,2.9,4.4,5.4c1,2.1,1.1,2.5,0.9,4.9l-0.1,2
			l-0.7,1.3c-0.4,0.7-1,1.6-1.2,1.9c-0.7,0.9-0.9,1.8-0.8,4.1c0.1,1.1,0.2,2.4,0.3,3c0.2,1.6,0.2,3.2-0.1,3.7
			c-0.3,0.6-1.3,1.4-1.9,1.5c-0.7,0.2-1.3-0.1-1.7-0.6c-0.7-0.8-0.7-1.3-0.3-3.9c0.4-2.3,0.7-4.8,0.5-4.8c0,0-0.2,0.2-0.4,0.5
			c-0.5,0.7-1.3,1.2-2.6,1.6c-0.6,0.2-1.3,0.4-1.6,0.5c-0.3,0.2-0.8,0.2-1.3,0.2c-0.7,0-0.8,0.1-1.1,0.4c-0.6,0.6-0.7,1.1-0.6,3.3
			c0.1,2.1,0,2.2-0.3,2.9c-0.6,1.2-1.6,1.6-2.4,1.1c-0.6-0.5-0.7-1.1-0.7-3.2c0-2.3-0.1-2.5-1.1-2.6c-1.2-0.2-1.8-0.5-2.3-1.2
			c-0.7-1-0.8-1.6-0.5-2.4c0.4-0.7,0.6-1,1.5-1.2c2.3-0.5,6.3-2.3,8.2-3.7c3-2.2,4-3.3,4.7-4.7c0.3-0.6,0.3-0.8,0.2-1.3
			c-0.1-0.4-0.3-0.6-0.6-0.7c-0.2-0.2-0.8-0.6-1.3-1.1c-0.8-0.8-1.5-1.3-1.9-1.3c-0.1,0-0.5,0.3-0.8,0.7c-1,0.8-1.5,1.1-2.1,0.8
			c-0.7-0.2-1.5-1-2-1.8s-0.8-1.2-1.4-1.6c-0.5-0.3-0.7-0.4-1.7-0.4c-1.4,0-1.3-0.2-1,2c0.6,3.3,0.1,5.1-1.3,5.1
			c-1.4,0-2.2-2.6-1.9-5.8c0.3-2.5,0.4-2.6,0.3-3c-0.1-0.2-0.4-0.6-0.7-0.8c-0.4-0.3-1.1-0.8-1.6-1.3c-0.5-0.5-1.2-1-1.4-1.2
			c-0.2-0.2-0.5-0.5-0.6-0.8c-0.1-0.3-0.3-0.7-0.5-0.9c-0.3-0.4-0.7-3-0.7-4c0-5.4,5-12.2,13.1-17.8c5.4-3.7,7.9-4.8,11.4-4.9
			c2.1-0.1,3.3,0.1,4.8,0.9c1.9,1,3.5,2.8,4.1,4.9C417.8,694.7,417.8,695,417.8,697z"/>
		<path d="M456.1,699.9c0.2,1.1,0.2,1.2-0.1,3.6c-0.2,1.3-0.3,3.5-0.4,4.8l-0.1,2.3l-0.7,1.5c-0.7,1.6-0.8,2-1.3,4
			c-0.3,1.3-0.2,2.1,0.2,4.1s0.2,3.5-0.7,4.4c-0.5,0.5-0.5,0.5-1.4,0.4c-0.7-0.1-0.8-0.1-1.2-0.5c-0.7-0.7-0.8-1.4-0.7-3.4l0.1-1.7
			l-1,1.9c-0.6,1.3-1.1,2.1-1.5,2.4c-0.4,0.4-0.5,0.7-0.7,1.3c-0.1,0.4-0.2,1.1-0.3,1.5c-0.4,2.1-1.9,2.6-4.1,1.6
			c-0.8-0.4-1.1-0.5-1.3-0.4c-0.2,0.1-0.3,0.2-0.3,0.3c0,0.3-1.3,1.5-1.7,1.6c-0.2,0.1-0.6,0.3-0.8,0.5l-0.3,0.3l0.3,1.6
			c0.5,2.3,0.4,2.9-0.4,3.7c-0.8,0.8-1.5,1-2.2,0.4c-0.6-0.5-0.8-1.4-0.8-3.2v-1.5l-1,0.9c-0.9,0.8-1.5,1.2-2.3,1.2
			c-0.3,0-0.3,0.1-0.2,0.8c0.1,0.4,0.2,1.7,0.3,2.9c0.4,2.6,0.4,4,0,5.1c-0.3,1-0.6,3-0.6,4.2c0,0.5,0.1,1.5,0.2,2.4
			c0.2,1.6,0.2,2.2-0.4,3.2c-0.4,0.8-1.4,1.1-2.2,0.7c-0.5-0.3-1-1.2-1-2.1c0-0.6-0.1-0.8-0.5-1.4c-0.6-1-0.8-1.9-0.8-3.4
			c0-0.9-0.1-1.4-0.2-1.5c-0.2-0.3-0.2-0.2-0.2,0.6c-0.1,1-0.5,1.6-1.1,2c-0.7,0.3-1.4,0.2-1.9-0.4c-0.3-0.4-0.3-0.5-0.2-1.7
			c0.2-2.5,0.2-3.8-0.2-4.7c-0.4-0.7-0.4-0.8-0.4-5.9c-0.1-2.9-0.1-5.7-0.1-6.4s0.1-2.2,0.2-3.6c0.2-1.9,0.2-2.7,0.1-4.5
			c-0.3-3.9-0.6-7.9-0.7-11.6c-0.1-2-0.2-4.1-0.3-4.7c-0.2-3.3-0.5-6.2-0.7-7.4c-0.4-2.1-0.3-3.3,0.5-5c1.4-2.8,4.6-4.3,7.6-3.7
			c2.5,0.5,4.8,2.7,5.4,5.2l0.2,0.7l1.1-1c4.9-4.2,10.3-5.2,14.6-2.5c1,0.7,2.6,2.2,3.4,3.3C454.3,694.5,455.6,697.5,456.1,699.9z
			 M448.4,699.5l-0.5-0.3c-1.2-1-1.1-0.8-1.2-2c-0.2-1.7-0.6-2.3-2.2-2.3c-0.9-0.1-1-0.1-1.1,0.4c-0.1,0.3-0.1,0.7,0,1.2
			c0.3,2.1,0.1,3.1-0.8,3.7c-1.3,0.8-2.1,0.1-2.5-2c-0.2-0.8-0.5-1.5-0.7-1.3c-0.1,0-0.2,0.3-0.3,0.7c-0.1,0.3-0.3,0.7-0.5,1
			c-0.3,0.3-0.3,0.5-0.3,1.4c0,1.5-0.5,2.2-1.9,2.6c-0.6,0.2-1.2,0.7-2.1,2c-0.3,0.5-1,1.3-1.4,1.9l-0.8,1l-0.2,2.2
			c-0.4,4.3-1.1,13.1-1.1,14.6c0,0.2,0.1,0.4,0.1,0.4s0.7-0.4,1.4-1c2.1-1.5,3.8-3,6.4-5.7c2.6-2.7,4-4.4,5.4-6.4
			c2.5-3.8,4-7.5,4.2-10.4L448.4,699.5z"/>
		<path d="M500.8,707.2c0.4,2.3,0.4,6.5,0.1,9.2c-0.1,1-0.2,2.3-0.2,2.9c0,1.7-0.3,2.9-1.3,4.9c-0.5,1-0.9,1.9-0.9,2
			c0,0.5-0.8,2.5-1.2,3.1c-0.8,1.4-1.1,3-0.9,5.9c0.2,2.8,0.1,3.6-0.7,4.5c-0.8,0.8-2,0.6-2.4-0.5c-0.2-0.6-0.3-0.9-0.2-2.1
			c0-0.7,0-1.4-0.1-1.4s-0.3,0.5-0.7,1c-0.4,0.6-0.8,1-1.2,1.1c-0.3,0.2-0.6,0.3-0.8,0.4c-0.2,0.1-1.1,0.9-1.9,2
			c-0.9,1-1.9,2-2.1,2.1c-1,0.5-1.7,0.3-3.8-0.7l-0.7-0.4l-1,0.6l-0.9,0.7v0.8c0,0.4,0.1,1.3,0.2,2c0.3,1.7,0.3,2.6-0.2,3.2
			c-0.2,0.3-0.5,0.5-0.7,0.6c-0.5,0.3-1.7,0.3-2.2,0c-1.4-0.7-1.7-1.6-1.2-3.7c0.3-1.5,0.2-3.1-0.1-3.6c-0.3-0.6-0.6-0.7-1.4-0.8
			c-1.6-0.2-2.5-0.6-3.3-1.4c-0.7-0.6-0.7-0.7-1.5-0.7c-0.7,0-2.4-0.3-3-0.5c-1-0.4-1.6-1.7-1.8-3.7c-0.1-0.9-0.2-1-1.4-2
			c-0.6-0.5-1-1.2-1.4-2.8c-0.2-0.7-0.5-1.6-0.8-2.1c-0.2-0.5-0.5-1.4-0.7-2.1c-0.2-0.7-0.4-1.8-0.6-2.5c-2-8.2-0.5-17.6,3.8-23.9
			c2.9-4.1,6.5-7.2,10.7-8.9c0.7-0.3,1.7-0.7,2.2-1c1.7-0.8,3.1-1,6-1c2.4,0,2.7,0,3.9,0.3c2.8,0.8,4.9,2,7.5,4.2
			C497.5,696.1,499.7,700.7,500.8,707.2z M495.7,713.3c-0.3-1.3-1.2-3.7-1.7-4.3c-0.3-0.4-0.5-0.9-0.6-1.2c-0.4-1.8-0.6-2.1-1.1-2.5
			c-0.3-0.2-0.8-0.7-1.1-1.1c-0.4-0.4-0.8-0.7-1-0.8c-0.4-0.1-0.5,0-0.9,0.6c-0.4,0.7-1.1,1.1-1.8,1.1c-0.6,0-1.3-0.7-1.4-1.6
			c-0.1-0.5-0.2-0.6-0.3-0.5c-0.1,0-0.5,0.1-0.7,0.1c-0.5,0.1-0.7,0-1.4-0.5c-0.9-0.8-1.1-0.8-1.6-0.4c-0.3,0.3-0.3,0.4-0.3,1.9
			c0,0.9,0,2.2,0.1,2.9c0.2,1.6,0,2.1-1,2.9c-0.4,0.3-0.8,0.6-0.9,0.6c-0.3,0-1.1-1-1.2-1.5c-0.1-0.6,0-2.5,0.2-3.9
			c0.1-0.5,0.2-1.1,0.1-1.4v-0.5l-0.6,1c-0.6,1.1-1.3,1.9-2.1,2.3c-0.6,0.3-1.4,1.4-1.7,2.2c-0.1,0.4-0.4,1.1-0.6,1.6
			c-1,2.3-2,5.3-2.1,6.7c-0.1,0.5-0.2,1.5-0.4,2.3c-0.4,1.6-0.4,3.1-0.2,6.6c0.2,2.6,0.4,3.2,1.4,5c1.3,2.2,3.4,3.8,5.7,4.4
			c1.4,0.4,3.7,0.4,5.1,0c4.1-1.1,8.2-4.9,10.4-9.6c1.1-2.4,1.3-3.3,1.4-5.7c0.1-1.1,0.2-2.9,0.3-3.9
			C495.9,714.4,495.9,714,495.7,713.3z"/>
		<path d="M546.4,707.2c0.4,2.3,0.4,6.5,0.1,9.2c-0.1,1-0.2,2.3-0.2,2.9c0,1.7-0.3,2.9-1.3,4.9c-0.5,1-0.9,1.9-0.9,2
			c0,0.5-0.8,2.5-1.2,3.1c-0.8,1.4-1.1,3-0.9,5.9c0.2,2.8,0.1,3.6-0.7,4.5c-0.8,0.8-2,0.6-2.4-0.5c-0.2-0.6-0.3-0.9-0.2-2.1
			c0-0.7,0-1.4-0.1-1.4s-0.3,0.5-0.7,1c-0.4,0.6-0.8,1-1.2,1.1c-0.3,0.2-0.6,0.3-0.8,0.4c-0.2,0.1-1.1,0.9-1.9,2
			c-0.9,1-1.9,2-2.1,2.1c-1,0.5-1.7,0.3-3.8-0.7l-0.7-0.4l-1,0.6l-0.9,0.7v0.8c0,0.4,0.1,1.3,0.2,2c0.3,1.7,0.3,2.6-0.2,3.2
			c-0.2,0.3-0.5,0.5-0.7,0.6c-0.5,0.3-1.7,0.3-2.2,0c-1.4-0.7-1.7-1.6-1.2-3.7c0.3-1.5,0.2-3.1-0.1-3.6c-0.3-0.6-0.6-0.7-1.4-0.8
			c-1.6-0.2-2.5-0.6-3.3-1.4c-0.7-0.6-0.7-0.7-1.5-0.7c-0.7,0-2.4-0.3-3-0.5c-1-0.4-1.6-1.7-1.8-3.7c-0.1-0.9-0.2-1-1.4-2
			c-0.6-0.5-1-1.2-1.4-2.8c-0.2-0.7-0.5-1.6-0.8-2.1c-0.2-0.5-0.5-1.4-0.7-2.1c-0.2-0.7-0.4-1.8-0.6-2.5c-2-8.2-0.5-17.6,3.8-23.9
			c2.9-4.1,6.5-7.2,10.7-8.9c0.7-0.3,1.7-0.7,2.2-1c1.7-0.8,3.1-1,6-1c2.4,0,2.7,0,3.9,0.3c2.8,0.8,4.9,2,7.5,4.2
			C543,696.1,545.3,700.7,546.4,707.2z M541.3,713.3c-0.3-1.3-1.2-3.7-1.7-4.3c-0.3-0.4-0.5-0.9-0.6-1.2c-0.4-1.8-0.6-2.1-1.1-2.5
			c-0.3-0.2-0.8-0.7-1.1-1.1c-0.4-0.4-0.8-0.7-1-0.8c-0.4-0.1-0.5,0-0.9,0.6c-0.4,0.7-1.1,1.1-1.8,1.1c-0.6,0-1.3-0.7-1.4-1.6
			c-0.1-0.5-0.2-0.6-0.3-0.5c-0.1,0-0.5,0.1-0.7,0.1c-0.5,0.1-0.7,0-1.4-0.5c-0.9-0.8-1.1-0.8-1.6-0.4c-0.3,0.3-0.3,0.4-0.3,1.9
			c0,0.9,0,2.2,0.1,2.9c0.2,1.6,0,2.1-1,2.9c-0.4,0.3-0.8,0.6-0.9,0.6c-0.3,0-1.1-1-1.2-1.5c-0.1-0.6,0-2.5,0.2-3.9
			c0.1-0.5,0.2-1.1,0.1-1.4v-0.5l-0.6,1c-0.6,1.1-1.3,1.9-2.1,2.3c-0.6,0.3-1.4,1.4-1.7,2.2c-0.1,0.4-0.4,1.1-0.6,1.6
			c-1,2.3-2,5.3-2.1,6.7c-0.1,0.5-0.2,1.5-0.4,2.3c-0.4,1.6-0.4,3.1-0.2,6.6c0.2,2.6,0.4,3.2,1.4,5c1.3,2.2,3.4,3.8,5.7,4.4
			c1.4,0.4,3.7,0.4,5.1,0c4.1-1.1,8.2-4.9,10.4-9.6c1.1-2.4,1.3-3.3,1.4-5.7c0.1-1.1,0.2-2.9,0.3-3.9
			C541.5,714.4,541.5,714,541.3,713.3z"/>
		<path d="M564.5,731.6c-0.3-1-0.4-1.1-0.8-1.3c-0.3-0.2-0.6-0.3-1-0.2l-0.5,0.1l-0.1,2.3c-0.1,1.9,0,2.6,0.3,4.5
			c0.3,2.2,0.3,2.2,0.1,3.5c-0.4,2.1-0.4,2.9-0.2,4c0.6,2.8-0.2,4.8-1.9,4.3c-1.1-0.3-1.3-1.3-0.8-3.7c0.5-2.1,0.5-2.1-0.1-2.1
			c-0.2,0-0.6-0.1-0.9-0.2l-0.5-0.2l0.1,1.2c0.1,1.3,0,1.9-0.5,2.4c-0.4,0.5-1,0.5-1.6,0.3c-1.1-0.5-1.3-2.1-0.6-4.3
			c0.5-1.6,0.4-2-0.9-4c-0.2-0.2-0.3-1-0.4-1.6c-0.1-0.7-0.5-2.1-0.8-3.1c-1-3-1.2-4.7-2.1-11.9c-1-8.1-1.2-9.8-1.2-16.5
			c0-6.4,0.3-10.9,0.9-13c0.7-3.1,3.8-5.1,6.8-4.6c2.1,0.4,3.6,1.6,4.9,4.1c0.6,1.1,0.8,1.7,1,2.4c0.2,1,0.2,1-0.6,4.7
			c-0.1,0.7-0.2,1.7-0.2,2.9c0,1.3-0.1,2.5-0.3,3.7c-0.1,1-0.3,2.8-0.4,4c-0.1,1.3-0.2,2.7-0.3,3.2c-0.3,1.5-0.3,4.1-0.2,4.1
			c0.3,0,9.8-9.8,11.2-11.6c3.1-3.8,4.5-5.7,7.7-10.8c1.2-1.9,2.5-3.7,2.8-4.1c1.2-1.4,3-1.7,4.4-1c1.4,0.8,2,2,2.1,4
			c0.1,1.1,0,1.6-0.2,2.5c-0.8,3.2-1.1,6.2-0.8,8.2c0.4,2.7,0.3,3.7-0.6,4.6c-0.6,0.6-0.7,0.6-1.3,0.6c-0.5,0-0.7-0.1-1.1-0.4
			c-0.3-0.4-0.4-0.5-0.4-1.3c0-0.5,0.2-1.5,0.4-2.2c0.2-0.7,0.3-1.5,0.3-1.6c0.1-0.4,0-0.4-0.2-0.1c-0.2,0.1-0.4,0.5-0.5,0.9
			c-0.2,0.4-0.6,1.3-1.2,2.1c-0.5,0.7-1.2,1.9-1.5,2.4c-0.3,0.5-0.8,1.3-1.1,1.7c-0.5,0.5-0.7,1-0.9,1.9c-0.5,2-1.3,3.1-2.8,3.9
			c-0.5,0.3-0.7,0.5-1.1,1.3c-0.4,0.8-0.4,1-0.5,2.1c0,2.2-0.4,3.1-1.4,3.1c-1.1,0-1.7-0.9-1.5-2.1l0.1-0.6l-0.5,0.6
			c-0.3,0.3-0.7,0.7-1,0.8c-0.2,0.2-0.8,0.6-1.3,1.1c-0.5,0.5-1.3,1.1-1.7,1.4c-0.4,0.3-0.8,0.5-0.8,0.6c-0.1,0,0.2,0.2,0.4,0.3
			c2.7,1,6.5,2.8,8.1,3.9c1.5,1,4.6,3.6,5.4,4.5c0.8,0.8,1.1,1.5,1.2,2.8c0.1,0.6,0,0.9-0.3,1.9c-0.7,1.6-0.7,2.6-0.2,4.5
			c0.4,1.7,0.4,2.2-0.2,3c-0.8,1.4-2.5,1.2-3.2-0.3c-0.3-0.7-0.3-1.5,0-2.9c0.5-2.1,0.6-3.1,0.4-3.4c-0.2-0.4-1.6-2-1.8-2
			c-0.1,0-0.1,0.4-0.2,0.8c-0.1,0.9-0.4,1.2-1.1,1.4c-1.1,0.2-1.7-0.6-2-2.1c-0.1-0.5-0.2-1-0.5-1.4c-0.4-0.6-0.6-0.7-1.7-1.1
			c-0.8-0.3-1.4-0.6-1.5-0.8c-0.2-0.2-0.5-0.6-0.8-1c-0.4-0.6-0.6-0.7-1-0.7c-0.8,0-1.2,0.2-1.6,1c-0.5,0.7-1.1,1-1.7,0.8
			C565.3,733.4,564.8,732.8,564.5,731.6z"/>
		<path d="M627.7,690.3c0.6,1,0.8,2,0.7,3.4c-0.2,1.9-0.6,3.3-1.6,5.1c-1.4,2.6-1.8,4.6-1.4,8c0.2,2.4,0.1,3.5-0.4,4.5
			c-0.3,0.6-0.5,0.7-1,1c-0.7,0.3-1.4,0.2-1.9-0.5c-0.4-0.4-0.4-0.5-0.4-1.7c0-0.7,0.1-1.6,0.1-1.9l0.1-0.6l-0.5,0.7
			c-0.3,0.4-0.7,1-1,1.2c-0.2,0.4-0.4,0.8-0.6,1.7c-0.2,1.2-0.8,2.7-1.5,4.1c-1,1.9-1.2,3.6-0.7,5.7c0.6,2.3,0.4,3.7-0.6,4.2
			c-0.9,0.5-1.9,0.1-2.3-0.8c-0.2-0.5-0.3-0.8-0.2-1.5c0.1-0.8,0.1-0.9-0.1-0.6c-0.4,0.5-0.9,1.6-1.3,3c-0.5,1.7-1,2.8-1.6,3.5
			c-0.6,0.7-0.8,1.2-1.1,2.6c-0.3,1.7-0.7,2.6-1.4,3.4c-0.6,0.6-0.7,0.9-0.9,1.6c-0.2,0.5-0.4,1.3-0.7,1.6c-1.2,2.1-1.1,2-1.1,3.8
			c0,1.2,0.1,2.1,0.3,2.8c0.4,2,0.1,3.8-1,4.8c-0.5,0.5-0.6,0.6-1.2,0.6c-0.4,0-0.6-0.1-1-0.4c-0.6-0.5-0.8-1.1-0.6-2.1
			c0.1-0.5,0.2-1.6,0.2-2.7l0.1-1.8l-0.4-0.1c-0.2-0.1-0.5-0.2-0.7-0.3c-0.2-0.1-0.4-0.2-0.5-0.2s-0.1,0.6-0.1,1.3l0.1,1.3l-0.5,0.4
			c-0.5,0.5-1.2,0.5-1.7,0.1c-0.4-0.3-0.6-0.7-0.7-2c-0.1-0.5-0.2-1.4-0.4-2c-0.2-1-0.3-1.2-0.1-2c0.1-0.5,0.2-1,0.3-1.2
			c0.1-0.2,0.3-1.1,0.6-2c0.7-2.6,2.7-8.1,5.1-14.4l0.7-1.7l-0.6-0.5c-0.3-0.3-1-0.9-1.4-1.4c-0.5-0.5-0.9-0.9-1-0.9
			c-0.2,0-0.2,0.7,0.1,1.6c0.3,1,0.3,2.2,0,2.6c-0.4,0.7-1.4,0.8-2,0.2c-0.8-0.7-1-2.3-0.6-4.3c0.3-1.5,0.1-2.8-0.7-3.3
			c-0.5-0.4-0.7-0.8-0.8-1.6c-0.1-0.5-0.3-1.1-0.6-1.7c-0.3-0.5-0.5-1.1-0.5-1.2c0-0.3-0.7-1.3-0.7-1.1c0,0.2,0.1,0.6,0.2,1.1
			c0.2,1,0.1,1.8-0.4,2.6c-0.6,0.9-1.9,0.9-2.5,0c-0.7-0.9-0.7-2.1-0.2-4.3c0.2-0.5,0.3-1.7,0.3-3.3c0.1-2.2,0.1-2.6-0.2-3.4
			c-0.3-1.1-0.7-4.5-0.7-5.7c0-2.1,0.8-5.5,1.5-6.5c0.9-1.3,2-1.9,3.3-1.9s2.7,0.8,3.2,2.2c0.2,0.4,0.2,1.3,0.3,3.2
			c0.2,3.6,0.4,5.1,1.8,9.5c0.9,3,1.5,4.6,2.6,6.6c1.1,2,2.3,4,2.4,3.9c0,0,0.9-2.2,2-4.9c2.3-5.7,4-9.8,4.9-11.6
			c1.3-2.6,1.7-3.6,2-4.5c0.4-1.3,1-2.3,1.8-3c0.9-0.7,1.6-1.1,2.9-1.4C623.7,686.8,626.5,688,627.7,690.3z"/>
	</g>
	<path d="M538,143c-16.6-1.4-23.4,5.2-26.7,15.9c-14.4-6.3-25.5-1.9-33.7,10.8c-14.4-4.3-20.9,2.6-26.4,12.1c-3.2,5.6-5,12-7.4,18
		c-0.2,0.5-0.4,1-0.6,1.6c-1-6.3-1.6-12.5-3.2-18.5c-1-4-3.1-7.8-5.3-11.4c-3.6-6-9.2-8.7-16.3-8.1c-1.7,0.1-2.8,0-3.7-1.9
		c-6.3-14.1-15.8-18.8-31.4-15.6c-0.7-5.6-2.1-10.9-6.4-15.1c-4.4-4.3-10-5.1-16-6.1c16.9-9.4,34.5-14.5,53.2-16.7
		c4.7,14.9,15.9,23.8,28.2,32.3c0.9-5.8,1.8-11.3,2.7-16.9c3.8,6.7,7.5,7.5,13.5,2.1c-0.7,5.8-1.3,11.1-1.9,16.7
		c13.9-5.3,26.7-11.8,34.4-25.4C507.9,123,523.6,130.9,538,143z"/>
	<path d="M270.6,336.8c-1.4,13.1-8.9,22.4-17.4,31.5c-0.8-2.3-1.5-4.1-2.1-5.8c-0.6-1.8-1.4-4.5-1.8-5.9c-1.4,1.7-3,4.1-4.7,4.3
		c-1.9,0.2-4.1-1.1-6.1-1.8c1.1,3.9,2.2,8.1,3.5,12.7c-12-1.4-22.9-4-31.1-13c-14.4,9.1-28.4,22.2-31.8,29.6
		c9.2-3,16.7-1.3,21.6,7.8c4.5-3.9,9.5-6.4,15-5.1c5,1.2,9.7,3.8,15.3,6.1c4.2-2.8,9.7-4.3,15.2-0.5c3.1,2.1,5.9,4.8,8.4,7.6
		c2.4,2.7,4.3,6,6.9,9.7c0-5.8-0.1-10.7,0-15.6c0.3-9,4.2-14.3,12-16.7c1.8-0.5,3.5-0.3,4.5-0.4c0.1-0.7,0.8-5,1.9-7.4
		c2.8-5.5,7.3-9.3,13.7-11.3c2.1-0.6,4.2-0.9,5.2-1.1c1.5-4.8,1.8-9.6,4.2-13c2.4-3.4,6.8-5.3,10.3-7.9
		C299.3,336.3,285,335.9,270.6,336.8z"/>
	<path d="M329.7,188.4c-10.1,8.8-29.4,10.1-37.7,8c2.4-4.6,4.8-9.1,7-13.3c-2.7,0-5.6,0.8-7.4-0.2c-1.9-1.1-2.8-4.1-4.1-6.2
		c-2.3,4.1-4.8,8.7-7.5,13.6c-8-12.2-15.2-24.2-13-39.6c-16.6-5.9-33.6-8.8-51.4-7.5c11.5,6.4,15.9,15.3,10.5,27.8
		c11.6,1.1,23.7,11.9,22,28.8c0.8,0.3,1.6,0.6,2.5,0.9c6.8,2.1,11.1,6.6,12.4,13.6c0.6,3.3,1.1,6.8,0.8,10.1
		c-0.6,6.4-1.9,12.7-2.9,19c0.7-0.9,1.5-2.1,2.5-3.2c3.5-3.7,6.6-7.9,10.6-11c10.5-8.1,17.5-9,26-0.9c0.5,0.5,0.6,0.7,0.6,0.7
		s0.2-0.2,0.6-0.6c13.5-9,24.6-4.5,32,4.8c8.1-10.1,12.5-10.9,27.2-4.7C352.6,213.1,341.8,200.3,329.7,188.4z"/>
	<path d="M620.3,189c0.9,5.9-0.5,11.3-2.8,16.6c-2.3,5.1-5.4,9.6-9,14.1c-0.9-1.8-4.4-8.4-5-9.5c0,0,0,0,0,0
		c-0.4-0.7-0.8-1.5-1.2-2.2c-0.3,1.9-0.1,4.4-2.8,5.4c-2.5,1-4.4-0.5-6-1.7c0.2,0.7,0.5,1.4,0.8,2.1v0c0.1,0.1,0.1,0.3,0.2,0.5
		c0,0,0,0,0,0.1c1.1,2.5,3.6,8.6,4.2,10c-6.1,0.2-11.6-0.1-17.1-1.3c-5.7-1.2-10.9-3.4-15.4-7.1c-10.2,11.2-19.4,23-25.8,37.1
		c9-5.8,16.6-6.5,23.2,1.5c6.2-8.9,16.2-11,24.7-5.3c0,0,0,0,0,0c0.8,0.5,1.7,1.2,1.7,1.2s0.8-0.7,1.6-1.3c4.1-3.6,8.8-4.7,13.6-1.9
		c3.1,1.7,6,3.9,8.5,6.3c3,2.9,5.5,6.3,8.1,9.5c0,0,0,0,0-0.1c-0.2-0.7-0.3-1.3-0.5-2c-1.8-6.4-3.1-12.9-1.7-19.5
		c0.5-2.3,1.6-4.5,2.9-6.5c2.1-3.1,5.5-4.2,9-4.9c1.8-13.5,5.6-17.6,18.9-20c-1.3-4.5-1-8.8,1.8-12.8c2.7-3.8,6.9-5.4,11.4-7
		C649.2,186.9,634.9,186.7,620.3,189z"/>
	<path d="M667.8,387.3c-9.5,4.5-18.6,3.1-28.1,1.5c2.4-3.5,4.5-6.6,6.8-10c-4.9,1.1-5.4,0.7-6.1-4.8c-2.5,2.6-4.8,5-7.4,7.8
		c-3.6-9.3-7.2-17.9-3.5-27.5c-10.9-6.3-22-10.9-35.1-12.4c6.7,6.3,8.3,13,3.5,20.6c8.6,4.2,12.8,10.5,11.9,19.7
		c-0.3,1.8-0.8,3-0.8,3c1.1,0.4,1.8,0.6,3.7,1.8c4.3,3.1,5.9,7.4,4.7,12.6c-1.2,5.5-3.2,10.9-4.6,15.8c3.2-2.1,6.5-4.7,10.2-6.7
		c5-2.8,11.7-3.6,16.4,1.1c1.1,1.2,2.5,3,2.5,3c0.5-0.3,1.4-0.8,2.4-1.2c8.9-2.4,15.2,1.5,20.1,9.1c6.3-5.5,12.8-5,19.9,0
		C680.8,408.1,675.5,397.3,667.8,387.3z"/>
</g>
</svg>
